PathFileType	4	(X/Y/Z)	Kaydara																																																																																																																									
DataRate	CameraRate	NumFrames	NumMarkers	Units	OrigDataRate	OrigDataStartFrame	OrigNumFrames																																																																																																																					
30	30	5	41	mm	30	107	104																																																																																																																					
Frame#	Time	EMLA_LFHD			EMLA_RFHD			EMLA_LBHD			EMLA_RBHD			EMLA_LFTShould			EMLA_RFTShould			EMLA_LRRShould			EMLA_RRRShould			EMLA_T10			EMLA_STRN			EMLA_TRUN			EMLA_LSHO			EMLA_LUPA			EMLA_LELB			EMLA_LFRM			EMLA_LWRA			EMLA_LWRB			EMLA_LFIN			EMLA_RSHO			EMLA_RUPA			EMLA_RELB			EMLA_RFRM			EMLA_RWRA			EMLA_RWRB			EMLA_RFIN			EMLA_LFWT			EMLA_RFWT			EMLA_LBWT			EMLA_RBWT			EMLA_LTHI			EMLA_LKNE			EMLA_LSHN			EMLA_LANK			EMLA_LHEE			EMLA_LTOE			EMLA_RTHI			EMLA_RKNE			EMLA_RSHN			EMLA_RANK			EMLA_RHEE			EMLA_RTOE		
		X1	Y1	Z1	X2	Y2	Z2	X3	Y3	Z3	X4	Y4	Z4	X5	Y5	Z5	X6	Y6	Z6	X7	Y7	Z7	X8	Y8	Z8	X9	Y9	Z9	X10	Y10	Z10	X11	Y11	Z11	X12	Y12	Z12	X13	Y13	Z13	X14	Y14	Z14	X15	Y15	Z15	X16	Y16	Z16	X17	Y17	Z17	X18	Y18	Z18	X19	Y19	Z19	X20	Y20	Z20	X21	Y21	Z21	X22	Y22	Z22	X23	Y23	Z23	X24	Y24	Z24	X25	Y25	Z25	X26	Y26	Z26	X27	Y27	Z27	X28	Y28	Z28	X29	Y29	Z29	X30	Y30	Z30	X31	Y31	Z31	X32	Y32	Z32	X33	Y33	Z33	X34	Y34	Z34	X35	Y35	Z35	X36	Y36	Z36	X37	Y37	Z37	X38	Y38	Z38	X39	Y39	Z39	X40	Y40	Z40	X41	Y41	Z41
																																																																																																																												
92	3.533	322.66647	1582.18811	1757.65625	154.57812	1556.54388	1751.75125	339.49413	1600.27237	1609.51202	146.68853	1573.86673	1600.61111	333.89515	1364.08066	1674.6199	188.99517	1351.52985	1682.44125	329.96048	1409.20898	1532.58133	179.33054	1403.36578	1536.46591	266.66145	1236.1985	1480.88791	263.96444	1288.50723	1715.26825	262.26185	1183.82187	1727.52487	459.41177	1384.16565	1621.24237	539.4537	1216.399	1609.0625	583.85529	1078.52623	1613.14743	576.88725	938.56689	1652.7919	481.64001	831.73447	1771.33148	532.5948	790.33371	1715.94162	528.37357	776.07323	1783.69308	71.04882	1386.63406	1613.9502	-9.80134	1211.49132	1565.0412	-41.09243	1084.65813	1508.7294	-52.60418	984.35852	1479.2218	10.30561	799.37035	1535.83069	-44.45037	801.1808	1466.5213	-49.84035	754.62738	1512.20718	389.16161	952.49634	1674.64615	151.72015	939.56139	1682.77328	339.81529	970.38147	1479.32877	167.72207	956.5712	1497.31659	402.22874	704.24263	1467.60223	397.19696	490.61798	1484.20761	366.06014	307.67595	1473.00797	362.48116	139.71419	1381.0463	294.10688	69.73068	1310.34866	327.19257	39.61416	1505.06104	131.18259	650.21179	1623.71155	127.62626	499.8999	1780.51941	185.11353	272.07842	1798.74496	157.57956	104.75441	1720.54382	220.1096	55.9217	1671.99631	173.56714	48.74474	1863.7323
93	3.567	318.76362	1569.80301	1823.05695	151.12988	1541.59424	1816.01532	336.40182	1585.40268	1674.91898	144.46871	1556.08444	1664.47815	336.89083	1340.39032	1745.04608	187.83312	1329.8996	1750.61447	328.67283	1393.29453	1598.7883	176.69025	1385.07004	1604.92233	266.25135	1218.82607	1548.51547	264.70451	1268.56163	1782.70676	265.02636	1164.28131	1797.17804	459.03702	1368.95813	1688.17673	546.61743	1201.31889	1683.57071	593.55934	1063.96774	1694.888	576.12129	930.88043	1750.64499	466.46454	849.51668	1875.11703	515.87711	795.45067	1830.07828	505.96863	792.33727	1899.23035	69.42776	1365.07919	1683.19992	-11.03885	1192.50862	1625.4631	-42.84365	1070.54901	1562.13623	-55.78979	973.14949	1525.93231	2.49563	783.91914	1570.01755	-51.68721	791.40945	1500.39871	-58.3504	741.76346	1542.28699	395.02098	938.30307	1736.44409	159.82635	923.17665	1761.07819	329.77825	956.59767	1543.78525	159.91144	940.66383	1574.82162	392.19364	702.61894	1514.93469	394.93053	488.0069	1516.03897	363.60664	305.36871	1493.57117	356.31165	145.29393	1388.84674	285.61272	80.39606	1315.37033	325.91751	39.10553	1505.47165	136.74057	636.20735	1702.96677	128.48252	485.83042	1858.58765	179.20919	271.63521	1931.1235	142.80627	91.94736	1908.30887	203.18106	29.22256	1870.40939	167.21155	74.13055	2061.33179
94	3.6	315.24572	1555.88867	1889.62372	147.90802	1526.29547	1882.45148	333.58772	1568.55591	1741.34125	141.88174	1537.54578	1730.46783	335.5143	1322.02148	1814.0123	186.36839	1308.25897	1820.44189	326.32404	1377.54852	1668.21686	174.17551	1366.88141	1674.74564	264.73745	1201.09818	1616.18195	265.17538	1249.05235	1852.9303	267.0657	1145.01389	1867.83798	457.3457	1352.98965	1756.4418	548.18298	1187.61559	1758.18008	598.86944	1051.94046	1777.3764	574.01405	925.4026	1845.57693	453.38398	864.254	1969.52209	503.18905	802.46948	1936.6629	487.97646	809.8922	2004.41681	67.17668	1344.65942	1752.4144	-10.6544	1171.69655	1690.00549	-41.61941	1052.76588	1622.99286	-56.59274	960.20615	1581.03363	-6.02625	767.00134	1612.44034	-60.00522	780.68794	1543.01239	-68.13676	728.64853	1580.83893	399.64043	923.35747	1800.72739	166.85698	905.91331	1840.12756	320.4829	940.33539	1612.6886	152.97493	921.60492	1653.53348	385.25578	700.42549	1570.43701	394.75384	487.21272	1553.81439	363.33191	305.55441	1516.80054	352.37602	155.3616	1399.33273	279.27099	96.37117	1322.9985	325.47146	38.83538	1505.88287	139.19916	609.18499	1768.35602	125.10038	465.02758	1936.66077	174.37046	277.97165	2047.49725	133.27749	99.03891	2066.18362	191.54316	29.6714	2038.27484	163.717	106.23663	2221.94778
95	3.633	311.20306	1543.44788	1957.50229	143.94678	1512.9924	1950.77576	329.62955	1552.91199	1808.9325	138.02558	1520.88745	1798.55301	333.98708	1306.77582	1884.37775	183.96528	1294.46228	1891.79901	322.56577	1362.41211	1737.95731	171.38355	1350.43884	1744.41605	262.1793	1184.69841	1687.43164	264.3763	1235.40535	1924.77097	267.44213	1131.40465	1940.35767	453.32203	1340.58777	1825.94482	545.16541	1177.24586	1832.8244	599.83917	1044.21051	1855.04776	571.01635	922.54349	1932.14493	444.09332	874.72351	2055.28259	494.31385	809.05777	2030.87555	477.09007	824.49631	2096.8605	64.38288	1328.74771	1820.87036	-8.70266	1156.22063	1756.67114	-37.86619	1037.13333	1690.4895	-54.57907	948.89442	1645.06561	-15.24145	752.52335	1668.18039	-68.20724	773.15445	1596.97006	-77.71966	718.53531	1632.68768	399.7485	908.31245	1870.80475	168.65726	890.81284	1918.01041	313.50828	923.51295	1686.13617	147.50687	904.13162	1732.14218	377.91	694.58717	1634.84711	395.9214	482.52251	1604.98184	365.29278	303.85286	1551.44104	352.33589	167.84208	1417.40326	278.41877	118.96344	1335.89005	325.2948	38.52877	1507.97058	133.05524	596.07998	1853.57834	123.61829	456.91467	2021.83731	169.90347	276.08013	2143.52615	130.45114	98.19048	2172.92648	189.91165	27.26337	2150.17242	158.26594	114.73378	2329.62723
96	3.667	306.57785	1533.16193	2026.07941	139.44664	1501.85593	2020.04211	325.09594	1540.99213	1877.49893	133.19449	1507.72217	1867.72614	329.20288	1299.31839	1956.19034	179.78655	1284.21585	1964.62387	317.51368	1348.27454	1808.4903	167.81687	1336.5419	1815.51224	259.25474	1169.29939	1762.46002	260.52229	1226.28235	1998.67859	263.9551	1122.58156	2015.69672	448.90087	1330.36255	1895.03876	542.29504	1167.82684	1903.46481	598.99971	1036.7186	1926.89407	567.89814	918.44398	2009.02618	438.89584	878.67012	2133.35831	488.50132	811.5786	2112.31064	471.75682	830.5658	2177.2699	60.68116	1316.16653	1891.96426	-8.95189	1143.65204	1827.17087	-35.59582	1024.3058	1761.45218	-52.54604	937.69661	1714.6727	-21.3594	738.39317	1735.11261	-70.7632	763.70544	1662.67609	-85.11347	709.17435	1698.00949	397.62699	894.47601	1948.60443	166.06022	879.88739	1997.7977	309.71418	908.76129	1764.54453	143.83519	893.08975	1810.96054	375.72502	685.70702	1708.91983	401.42342	475.18929	1671.97906	370.17879	301.72747	1598.26035	354.87507	184.96691	1446.76163	279.65446	149.96696	1361.76788	324.91974	37.6254	1513.10562	130.34495	588.4058	1943.80096	120.71553	454.04053	2114.01825	171.06644	257.37387	2222.38068	137.14399	74.30754	2225.77606	198.09196	13.63897	2199.60342	157.43324	73.89743	2385.33875
